<?xml version="1.0" encoding="UTF-8"?>
<svg width="700pt" height="700pt" version="1.1" viewBox="0 0 700 700" xmlns="http://www.w3.org/2000/svg">
 <path d="m350 0c-99.785 0-180.69 80.887-180.69 180.69 0 16.73 2.293 32.934 6.5469 48.301 1.6992 6.1602 3.7109 12.18 6.0391 18.059l5.4766 12.441 162.62 300.51 162.84-300.93 4.9336-11.219c2.4492-6.125 4.5859-12.426 6.3711-18.863 4.2539-15.383 6.5469-31.57 6.5469-48.301 0-99.801-80.902-180.69-180.69-180.69zm70.664 281.47-70.664-49.559-70.648 49.543 26.969-80.113-71.539-50.156h88.426l26.793-79.484 26.793 79.484h88.445l-71.559 50.137z"/>
</svg>
