<?xml version="1.0" encoding="UTF-8"?>
<svg width="700pt" height="700pt" version="1.1" viewBox="0 0 700 700" xmlns="http://www.w3.org/2000/svg" xmlns:xlink="http://www.w3.org/1999/xlink">
 <g>
  <path d="m355.47 99.523-40.855 10.219 30.645 30.645z"/>
  <path d="m201.25 253.75h17.5v105h-17.5z"/>
  <path d="m271.25 236.25h17.5v122.5h-17.5z"/>
  <path d="m341.25 201.25h17.5v157.5h-17.5z"/>
  <path d="m131.25 306.25h17.5v52.5h-17.5z"/>
  <path d="m245 420c0 4.8281 3.9297 8.75 8.75 8.75h192.5c4.8203 0 8.75-3.9219 8.75-8.75v-8.75h-210z"/>
  <path d="m455 35c0-4.8281-3.9297-8.75-8.75-8.75h-192.5c-4.8203 0-8.75 3.9219-8.75 8.75v8.75h210z"/>
  <path d="m248.39 533.75h34.055l29.164-87.5h-34.047z"/>
  <path d="m388.39 446.25 29.164 87.5h34.055l-29.172-87.5z"/>
  <path d="m498.75 235.55v17.684c36.434-4.0508 65.434-33.039 69.484-69.484h-17.684c-3.8594 26.766-25.035 47.941-51.801 51.801z"/>
  <path d="m533.75 175c0 24.164-19.586 43.75-43.75 43.75s-43.75-19.586-43.75-43.75 19.586-43.75 43.75-43.75 43.75 19.586 43.75 43.75"/>
  <path d="m429.45 183.75h-17.684c4.0508 36.445 33.047 65.434 69.484 69.484v-17.684c-26.766-3.8594-47.941-25.035-51.801-51.801z"/>
  <path d="m481.25 114.45v-17.684c-36.434 4.0508-65.434 33.039-69.484 69.484h17.684c3.8594-26.766 25.035-47.941 51.801-51.801z"/>
  <path d="m96.25 61.25v332.5h507.5v-332.5zm17.5 17.5h52.5v17.5h-35v70h-17.5zm0 105h17.5v17.5h-17.5zm262.5 192.5h-262.5v-87.5h52.5v70h17.5v-122.5h52.5v122.5h17.5v-140h52.5v140h17.5v-175h52.5zm-21.508-201.64-30.992-30.992-61.25 61.25-35-35-107.56 107.57-12.371-12.371 119.93-119.94 35 35 48.879-48.879-30.992-30.992 99.145-24.781zm126.51 201.64h-87.5v-17.5h87.5zm35 0h-17.5v-17.5h17.5zm35 0h-17.5v-17.5h17.5zm35 0h-17.5v-17.5h17.5zm0-35h-192.5v-17.5h192.5zm0-35h-192.5v-17.5h192.5zm-96.25-35c-53.07 0-96.25-43.18-96.25-96.25s43.18-96.25 96.25-96.25 96.25 43.18 96.25 96.25-43.18 96.25-96.25 96.25z"/>
  <path d="m498.75 96.766v17.684c26.766 3.8594 47.941 25.035 51.801 51.801h17.684c-4.0508-36.445-33.051-65.434-69.484-69.484z"/>
  <use x="70" y="691.25" xlink:href="#m"/>
  <use x="102.109375" y="691.25" xlink:href="#h"/>
  <use x="123.683594" y="691.25" xlink:href="#c"/>
  <use x="153.355469" y="691.25" xlink:href="#b"/>
  <use x="182.878906" y="691.25" xlink:href="#g"/>
  <use x="203.792969" y="691.25" xlink:href="#c"/>
  <use x="233.464844" y="691.25" xlink:href="#f"/>
  <use x="280.011719" y="691.25" xlink:href="#e"/>
  <use x="311.328125" y="691.25" xlink:href="#a"/>
  <use x="355.078125" y="691.25" xlink:href="#d"/>
  <use x="384.964844" y="691.25" xlink:href="#l"/>
  <use x="416.113281" y="691.25" xlink:href="#k"/>
  <use x="442.046875" y="691.25" xlink:href="#b"/>
  <use x="471.570312" y="691.25" xlink:href="#j"/>
  <use x="486.566406" y="691.25" xlink:href="#a"/>
  <use x="515.082031" y="691.25" xlink:href="#i"/>
 </g>
</svg>
