<?xml version="1.0" encoding="iso-8859-1"?>
<!-- Generator: Adobe Illustrator 24.3.0, SVG Export Plug-In . SVG Version: 6.00 Build 0)  -->
<svg version="1.1" xmlns="http://www.w3.org/2000/svg" xmlns:xlink="http://www.w3.org/1999/xlink" x="0px" y="0px"
	 viewBox="0 0 512 512" style="enable-background:new 0 0 512 512;" xml:space="preserve">
<g id="_x31_083_x2C__Friends_x2C__group_x2C__users_x2C__team">
	<g>
		<path d="M272.773,256.954c-23.731-20.128-53.956-31.213-85.106-31.213C115.065,225.741,56,284.807,56,357.407v27.608
			c0,24.633,17.485,45.73,41.642,50.334h180.051c24.155-4.604,41.641-25.701,41.641-50.334v-19.211v-8.397
			C319.333,318.662,302.363,282.048,272.773,256.954z"/>
		
			<ellipse transform="matrix(0.0109 -0.9999 0.9999 0.0109 206.2841 510.4507)" cx="361.176" cy="150.948" rx="49.449" ry="49.449"/>
		<path d="M187.667,215.741c38.347,0,69.545-31.198,69.545-69.545S226.014,76.65,187.667,76.65
			c-38.348,0-69.546,31.198-69.546,69.545S149.319,215.741,187.667,215.741z"/>
		<path d="M361.176,210.398c-31.851,0-60.939,15.553-78.632,41.818c0.475,0.429,0.938,0.868,1.406,1.302
			c0.408,0.379,0.822,0.753,1.226,1.136c0.563,0.534,1.112,1.078,1.665,1.619c0.354,0.348,0.715,0.689,1.065,1.04
			c0.673,0.675,1.333,1.359,1.991,2.046c0.218,0.227,0.442,0.449,0.659,0.678c0.872,0.921,1.732,1.852,2.576,2.795
			c0.171,0.19,0.335,0.386,0.505,0.576c0.67,0.755,1.337,1.512,1.99,2.28c0.271,0.318,0.533,0.645,0.802,0.966
			c0.54,0.647,1.081,1.293,1.608,1.947c0.301,0.373,0.591,0.753,0.888,1.129c0.483,0.612,0.969,1.224,1.441,1.844
			c0.308,0.403,0.605,0.814,0.908,1.22c0.448,0.601,0.898,1.2,1.336,1.808c0.308,0.426,0.605,0.858,0.908,1.288
			c0.42,0.597,0.842,1.191,1.252,1.794c0.303,0.443,0.596,0.893,0.893,1.339c0.397,0.597,0.796,1.193,1.184,1.796
			c0.294,0.457,0.579,0.919,0.868,1.379c0.377,0.601,0.754,1.201,1.121,1.808c0.284,0.469,0.562,0.942,0.84,1.414
			c0.357,0.604,0.715,1.21,1.063,1.819c0.274,0.481,0.542,0.966,0.811,1.449c0.338,0.609,0.675,1.219,1.004,1.833
			c0.264,0.491,0.521,0.985,0.778,1.479c0.319,0.614,0.638,1.229,0.948,1.848c0.252,0.5,0.497,1.004,0.743,1.507
			c0.302,0.619,0.602,1.239,0.895,1.863c0.239,0.51,0.474,1.021,0.707,1.534c0.283,0.624,0.564,1.25,0.839,1.878
			c0.228,0.518,0.45,1.038,0.671,1.56c0.267,0.63,0.529,1.261,0.786,1.895c0.214,0.524,0.423,1.051,0.63,1.578
			c0.25,0.637,0.495,1.275,0.736,1.916c0.199,0.53,0.396,1.063,0.589,1.596c0.232,0.642,0.459,1.285,0.683,1.931
			c0.185,0.539,0.37,1.078,0.55,1.618c0.215,0.647,0.423,1.297,0.629,1.946c0.172,0.544,0.343,1.088,0.508,1.634
			c0.198,0.652,0.389,1.309,0.577,1.965c0.158,0.549,0.315,1.098,0.467,1.648c0.18,0.659,0.353,1.32,0.523,1.982
			c0.144,0.553,0.287,1.105,0.423,1.66c0.164,0.665,0.318,1.333,0.472,2.001c0.129,0.557,0.258,1.112,0.38,1.671
			c0.147,0.672,0.282,1.347,0.419,2.022c0.112,0.558,0.229,1.115,0.334,1.675c0.13,0.683,0.248,1.367,0.368,2.053
			c0.097,0.556,0.197,1.111,0.288,1.669c0.112,0.693,0.213,1.389,0.315,2.084c0.081,0.555,0.167,1.107,0.242,1.662
			c0.095,0.707,0.177,1.416,0.262,2.124c0.065,0.548,0.137,1.095,0.196,1.644c0.078,0.727,0.142,1.457,0.209,2.186
			c0.05,0.534,0.105,1.066,0.148,1.602c0.062,0.763,0.108,1.528,0.157,2.294c0.032,0.503,0.072,1.006,0.1,1.51
			c0.045,0.847,0.073,1.695,0.104,2.544c0.015,0.426,0.039,0.85,0.05,1.276c0.034,1.275,0.053,2.554,0.053,3.834v3.397h97.47
			C443.747,357.515,456,342.69,456,325.388v-20.166C456,252.936,413.462,210.398,361.176,210.398z"/>
	</g>
</g>
<g id="Layer_1">
</g>
</svg>
